# AST/ASF file generated using VICON BodyLanguage
# -----------------------------------------------
:version 1.10
:name VICON
:units
  mass 1.0
  length 0.45
  angle deg
:documentation
   .ast/.asf automatically generated from VICON data using
   VICON BodyBuilder and BodyLanguage model FoxedUp or BRILLIANT.MOD
:root
   order TX TY TZ RX RY RZ
   axis XYZ
   position 0 0 0  
   orientation 0 0 0 
:bonedata
  begin
     id 1 
     name lhipjoint
     direction 0.734343 -0.627749 0.258209 
     length 2.5437 
     axis 0 0 0  XYZ
  end
  begin
     id 2 
     name lfemur
     direction 0.34202 -0.939693 0  
     length 6.7391  
     axis 0 0 20  XYZ
    dof rx ry rz
    limits (-160.0 20.0)
           (-70.0 70.0)
           (-60.0 70.0)
  end
  begin
     id 3 
     name ltibia
     direction 0.34202 -0.939693 0   
     length 7.21536   
     axis 0 0 20   XYZ
    dof rx
    limits (-10.0 170.0)
  end
  begin
     id 4 
     name lfoot
     direction 0.0489572 -0.134509 0.989702   
     length 1.61313   
     axis -90 7.62852e-016 20   XYZ
    dof rx rz
    limits (-45.0 90.0)
           (-70.0 20.0)
  end
  begin
     id 5 
     name ltoes
     direction 1.53451e-011 -4.21692e-011 1   
     length 0.823104   
     axis -90 7.62852e-016 20   XYZ
    dof rx
    limits (-90.0 20.0)
  end
  begin
     id 6 
     name rhipjoint
     direction -0.746398 -0.615468 0.253157   
     length 2.59446  
     axis 0 0 0  XYZ 
  end
  begin
     id 7 
     name rfemur
     direction -0.34202 -0.939693 0   
     length 6.7075   
     axis 0 0 -20   XYZ
    dof rx ry rz
    limits (-160.0 20.0)
           (-70.0 70.0)
           (-70.0 60.0)
  end
  begin
     id 8 
     name rtibia
     direction -0.34202 -0.939693 0   
     length 7.27262   
     axis 0 0 -20   XYZ
    dof rx
    limits (-10.0 170.0)
 end
 begin
     id 9 
     name rfoot
     direction -0.0455203 -0.125066 0.991104   
     length 1.91095  
     axis -90 -7.62852e-016 -20   XYZ
    dof rx rz
    limits (-45.0 90.0)
           (-20.0 70.0)
  end
  begin
     id 10 
     name rtoes
     direction -1.53601e-011 -4.21913e-011 1   
     length 0.969037   
     axis -90 -7.62852e-016 -20   XYZ
    dof rx
    limits (-90.0 20.0)
  end
  begin
     id 11 
     name lowerback
     direction 0.0181546 0.999122 -0.0377542   
     length 1.99916   
     axis 0 0 0   XYZ
    dof rx ry rz
    limits (-20.0 45.0)
           (-30.0 30.0)
           (-30.0 30.0)
  end
  begin
     id 12 
     name upperback
     direction 0.0203486 0.99589 0.0882534   
     length 1.951   
     axis 0 0 0   XYZ
    dof rx ry rz
    limits (-20.0 45.0)
           (-30.0 30.0)
           (-30.0 30.0)
  end
  begin
     id 13 
     name thorax
     direction 0.0131685 0.994241 0.106355   
     length 1.97461   
     axis 0 0 0   XYZ
    dof rx ry rz
    limits (-20.0 45.0)
           (-30.0 30.0)
           (-30.0 30.0)
  end
  begin
     id 14 
     name lowerneck
     direction -0.0281395 0.999325 0.023617   
     length 1.7959   
     axis 0 0 0   XYZ
    dof rx ry rz
    limits (-20.0 45.0)
           (-30.0 30.0)
           (-30.0 30.0)
  end
  begin
     id 15 
     name upperneck
     direction 0.0288721 0.991984 -0.123019   
     length 1.79917   
     axis 0 0 0   XYZ
    dof rx ry rz
    limits (-20.0 45.0)
           (-30.0 30.0)
           (-30.0 30.0)
  end
  begin
     id 16
     name head
     direction 0.0133797 0.998944 -0.0439492  
     length 1.80902  
     axis 0 0 0   XYZ
    dof rx ry rz
    limits (-20.0 45.0)
           (-30.0 30.0)
           (-30.0 30.0)
  end
  begin
     id 17 
     name lclavicle
     direction 0.919195 0.377107 0.113449  
     length 3.17815  
     axis 0 0 0   XYZ
    dof ry rz
    limits (-20.0 10.0)
           (0.0 20.0)
  end
  begin
     id 18 
     name lhumerus
     direction 1 -4.48959e-011 2.13129e-027   
     length 4.84137   
     axis 180 -30 -90   XYZ
    dof rx ry rz
    limits (-60.0 90.0)
           (-90.0 90.0)
           (-90.0 90.0)
  end
  begin
     id 19
     name lradius
     direction 1 -4.48957e-011 -6.30627e-028   
     length 3.2452   
     axis 180 -30 -90   XYZ
    dof rx
    limits (-10.0 170.0)
  end
  begin
     id 20
     name lwrist
     direction 1 -4.4901e-011 9.13299e-027   
     length 1.6226   
     axis -6.84618e-015 90 90   XYZ
    dof ry
    limits (-180.0 0.0)
 end
  begin
     id 21 
     name lhand
     direction 1 -4.48816e-011 1.82293e-026   
     length 0.521221   
     axis -1.16502e-014 90 90   XYZ
    dof rx rz
    limits (-90.0 90.0)
           (-45.0 45.0)
  end
  begin
     id 22 
     name lfingers
     direction 1 -4.49108e-011 3.65687e-026   
     length 0.420221   
     axis -2.33008e-014 90 90   XYZ
    dof rx
    limits (0.0 90.0)
  end
  begin
     id 23
     name lthumb
     direction 0.707107 -6.34943e-011 0.707107   
     length 0.603356   
     axis -90 45 5.69224e-014   XYZ
    dof rx rz
    limits (-45.0 45.0)
           (-45.0 45.0)
  end
  begin
     id 24 
     name rclavicle
     direction -0.90847 0.38596 0.160368   
     length 3.12973  
     axis 0 0 0   XYZ 
    dof ry rz
    limits (-10.0 20.0)
           (-20.0 0.0)
  end
  begin
     id 25 
     name rhumerus
     direction -1 -4.48974e-011 4.47268e-028  
     length 4.72284   
     axis 180 30 90   XYZ
    dof rx ry rz
    limits (-90.0 60.0)
           (-90.0 90.0)
           (-90.0 90.0)
  end
  begin
     id 26 
     name rradius
     direction -1 -4.48969e-011 3.43203e-027   
     length 3.23459   
     axis 180 30 90   XYZ
    dof rx
    limits (-10.0 170.0)
  end
  begin
     id 27 
     name rwrist
     direction -1 -4.48969e-011 9.12911e-027   
     length 1.6173   
     axis -6.84618e-015 -90 -90   XYZ
    dof ry
    limits (-180.0 0.0)
  end
  begin
     id 28
     name rhand
     direction -1 -4.49194e-011 1.83006e-026   
     length 0.307416   
     axis -1.16502e-014 -90 -90   XYZ
    dof rx rz
    limits (-90.0 90.0)
           (-45.0 45.0)
  end
  begin
     id 29
     name rfingers
     direction -1 -4.48423e-011 3.63103e-026   
     length 0.247847   
     axis -2.33008e-014 -90 -90   XYZ
    dof rx
    limits (0.0 90.0)
  end
  begin
     id 30
     name rthumb
     direction -0.707107 -6.34802e-011 0.707107   
     length 0.35586   
     axis -90 -45 -5.69224e-014   XYZ
    dof rx rz
    limits (-45.0 45.0)
           (-45.0 45.0)
  end
:hierarchy
  begin
    root lhipjoint rhipjoint lowerback
    lhipjoint lfemur
    lfemur ltibia
    ltibia lfoot
    lfoot ltoes
    rhipjoint rfemur
    rfemur rtibia
    rtibia rfoot
    rfoot rtoes
    lowerback upperback
    upperback thorax
    thorax lowerneck lclavicle rclavicle
    lowerneck upperneck
    upperneck head
    lclavicle lhumerus
    lhumerus lradius
    lradius lwrist
    lwrist lhand lthumb
    lhand lfingers
    rclavicle rhumerus
    rhumerus rradius
    rradius rwrist
    rwrist rhand rthumb
    rhand rfingers
  end

#!OML:ASF H:\Terrain\Patient Classification 1\Animal1\Tuesday\Animal1.ASF
:FULLY-SPECIFIED
:DEGREES
968
root 11.5904 15.4644 -13.1406 29.9474 -34.8665 -10.9729
lowerback 5.30857 -1.03757 6.19362
upperback -8.13594 -0.370063 4.69658
thorax -11.8158 -0.516887 1.70748
lowerneck -2.3165 -0.221087 -6.29363
upperneck -4.54509 0.168285 14.762
head -0.939354 -0.00715324 5.49714
rclavicle -3.47873e-015 2.18663e-014
rhumerus -53.2458 27.9688 -104.213
rradius 58.3996
rwrist -0.121922
rhand -16.885 22.8268
rfingers 7.12502
rthumb 9.34627 -6.94597
lclavicle -3.47873e-015 2.18663e-014
lhumerus -55.7334 -0.704439 90.4564
lradius 52.3862
lwrist -31.7984
lhand -4.20446 44.8703
lfingers 7.12502
lthumb 21.5576 73.6905
rfemur -49.9178 20.0569 28.0607
rtibia 41.8918
rfoot -13.1997 -9.10982
rtoes -8.45058
lfemur -39.6315 18.21 -4.26427
ltibia 51.1053
lfoot -28.0839 18.3724
ltoes -11.5275
969
root 11.5829 15.4654 -13.1353 29.8492 -34.8381 -10.9486
lowerback 5.3463 -1.01288 6.24978
upperback -8.08222 -0.329349 4.69331
thorax -11.7776 -0.500778 1.66458
lowerneck -2.50378 -0.234609 -6.51379
upperneck -4.40341 0.150218 15.0402
head -0.863224 -0.00452795 5.6212
rclavicle 3.03147e-014 6.54002e-014
rhumerus -53.0726 27.8466 -104.052
rradius 58.4378
rwrist -0.485503
rhand -16.559 22.8263
rfingers 7.12502
rthumb 9.66084 -6.93221
lclavicle 3.03147e-014 6.54002e-014
lhumerus -55.4101 -0.846661 90.5211
lradius 52.0859
lwrist -31.8653
lhand -3.63653 44.8851
lfingers 7.12502
lthumb 22.103 73.6417
rfemur -49.7482 19.9853 28.1515
rtibia 41.8529
rfoot -13.0338 -9.13416
rtoes -8.74372
lfemur -39.4832 18.0157 -4.19215
ltibia 51.0798
lfoot -28.189 18.3183
ltoes -11.0087
970
root 11.576 15.4687 -13.1263 29.7643 -34.8183 -10.879
lowerback 5.35135 -1.02397 6.34419
upperback -8.06405 -0.338672 4.64455
thorax -11.7621 -0.515437 1.55964
lowerneck -2.54756 -0.265656 -6.52287
upperneck -4.46722 0.117893 15.1546
head -0.869967 -0.022682 5.65893
rclavicle 3.08116e-014 -3.51849e-014
rhumerus -52.9498 27.8338 -104.077
rradius 58.3517
rwrist -0.863036
rhand -16.1906 22.8418
rfingers 7.12502
rthumb 10.0163 -6.89988
lclavicle 3.08116e-014 -3.51849e-014
lhumerus -55.2658 -0.913522 90.4724
lradius 51.9227
lwrist -31.9361
lhand -3.58701 44.9903
lfingers 7.12502
lthumb 22.1505 73.7413
rfemur -49.6061 19.8876 28.1801
rtibia 41.8183
rfoot -12.9584 -9.41364
rtoes -10.3715
lfemur -39.3595 17.8644 -4.21212
ltibia 51.0164
lfoot -28.1721 18.4269
ltoes -10.9996
971
root 11.5681 15.4743 -13.1153 29.6974 -34.764 -10.8316
lowerback 5.31214 -1.03408 6.50006
upperback -8.04451 -0.347083 4.56896
thorax -11.7193 -0.536079 1.38984
lowerneck -2.56608 -0.359545 -6.33473
upperneck -4.51434 -0.00985086 15.1016
head -0.866751 -0.0899294 5.60997
rclavicle 3.93097e-014 -5.96354e-015
rhumerus -53.0082 27.9223 -104.372
rradius 57.9981
rwrist 0.0896181
rhand -17.7491 22.3504
rfingers 7.12502
rthumb 8.51246 -7.45802
lclavicle 3.93097e-014 -5.96354e-015
lhumerus -55.245 -1.02383 90.4237
lradius 51.8323
lwrist -31.8624
lhand -4.16442 45.0828
lfingers 7.12502
lthumb 21.5961 73.8986
rfemur -49.475 19.8428 28.1853
rtibia 41.7975
rfoot -12.9799 -9.65467
rtoes -11.8812
lfemur -39.2464 17.7427 -4.21765
ltibia 50.9452
lfoot -28.0666 18.6204
ltoes -10.9827
972
root 11.5612 15.4794 -13.1069 29.7082 -34.6837 -10.7813
lowerback 5.22781 -1.0587 6.59482
upperback -8.05878 -0.378541 4.56964
thorax -11.6873 -0.559614 1.34128
lowerneck -2.63344 -0.429272 -6.34468
upperneck -4.45057 -0.109336 15.1106
head -0.825849 -0.134673 5.61377
rclavicle 5.03919e-014 -1.09332e-014
rhumerus -52.8947 27.7333 -104.147
rradius 58.0636
rwrist -0.396906
rhand -16.5626 23.8022
rfingers 7.12502
rthumb 9.65741 -5.95646
lclavicle 5.03919e-014 -1.09332e-014
lhumerus -55.3062 -0.940819 90.4362
lradius 51.8198
lwrist -31.693
lhand -4.7572 45.1617
lfingers 7.12502
lthumb 21.0267 74.0418
rfemur -49.4652 19.7726 28.1763
rtibia 41.7872
rfoot -12.9095 -9.69446
rtoes -12.4277
lfemur -39.2548 17.5713 -4.22203
ltibia 50.8939
lfoot -27.9478 18.8141
ltoes -11.5721
